<svg width="130" height="89" viewBox="0 0 130 89" fill="none" xmlns="http://www.w3.org/2000/svg">
<path d="M19.0339 75.9527H17.1486V73.3499C15.7792 75.1784 14.0253 76.0927 11.8867 76.0927C10.5924 76.0927 9.40118 75.7755 8.31315 75.1411C7.22513 74.5067 6.36222 73.6485 5.72441 72.5663C5.0866 71.4654 4.7677 70.2806 4.7677 69.0119C4.7677 67.7431 5.0866 66.5677 5.72441 65.4855C6.36222 64.3846 7.22513 63.517 8.31315 62.8827C9.40118 62.2483 10.5924 61.9311 11.8867 61.9311C14.1003 61.9311 15.8543 62.7987 17.1486 64.5339V57.3691H19.0339V75.9527ZM17.0924 69.0119C17.0924 68.079 16.8579 67.2207 16.3889 66.437C15.9199 65.6534 15.2821 65.0283 14.4755 64.5619C13.6876 64.0954 12.8247 63.8622 11.8867 63.8622C10.9488 63.8622 10.0859 64.0954 9.298 64.5619C8.51012 65.0283 7.8817 65.6534 7.41272 66.437C6.94375 67.2207 6.70926 68.079 6.70926 69.0119C6.70926 69.9448 6.94375 70.8124 7.41272 71.6147C7.8817 72.3984 8.51012 73.0234 9.298 73.4899C10.0859 73.9563 10.9488 74.1895 11.8867 74.1895C12.8247 74.1895 13.6876 73.9563 14.4755 73.4899C15.2821 73.0234 15.9199 72.3984 16.3889 71.6147C16.8579 70.8124 17.0924 69.9448 17.0924 69.0119Z" fill="white"/>
<path d="M28.6764 76.0927C27.4008 76.0927 26.2096 75.7755 25.1028 75.1411C24.0148 74.5067 23.1519 73.6485 22.5141 72.5663C21.8763 71.4654 21.5574 70.2806 21.5574 69.0119C21.5574 67.7245 21.8763 66.5397 22.5141 65.4575C23.1519 64.3567 24.0148 63.489 25.1028 62.8547C26.2096 62.2016 27.4008 61.8751 28.6764 61.8751C29.9708 61.8751 31.162 62.2016 32.25 62.8547C33.3568 63.489 34.2291 64.3567 34.8669 65.4575C35.5235 66.5397 35.8518 67.7245 35.8518 69.0119C35.8518 70.2806 35.5235 71.4654 34.8669 72.5663C34.2291 73.6485 33.3568 74.5067 32.25 75.1411C31.162 75.7755 29.9708 76.0927 28.6764 76.0927ZM28.6764 74.2175C29.6331 74.2175 30.5054 73.9843 31.2933 73.5178C32.1 73.0514 32.7378 72.417 33.2067 71.6147C33.6757 70.8124 33.9102 69.9448 33.9102 69.0119C33.9102 68.0603 33.6757 67.1834 33.2067 66.3811C32.7378 65.5788 32.1 64.9444 31.2933 64.4779C30.5054 64.0115 29.6331 63.7782 28.6764 63.7782C27.7385 63.7782 26.8662 64.0115 26.0595 64.4779C25.2717 64.9444 24.6432 65.5788 24.1743 66.3811C23.7053 67.1834 23.4708 68.0603 23.4708 69.0119C23.4708 69.9448 23.7053 70.8124 24.1743 71.6147C24.6432 72.417 25.2717 73.0514 26.0595 73.5178C26.8662 73.9843 27.7385 74.2175 28.6764 74.2175Z" fill="white"/>
<path d="M77.52 16.0814C78.533 16.0814 79.4615 16.3333 80.3057 16.8371C81.1686 17.3222 81.8439 17.9939 82.3317 18.8522C82.8382 19.6918 83.0914 20.6154 83.0914 21.6229V30.1871H81.1498V21.6229C81.1498 20.9699 80.981 20.3635 80.6434 19.8038C80.3244 19.244 79.8836 18.8056 79.3208 18.4884C78.7768 18.1525 78.1765 17.9846 77.52 17.9846C76.8634 17.9846 76.2537 18.1525 75.691 18.4884C75.1282 18.8056 74.678 19.244 74.3403 19.8038C74.0214 20.3635 73.862 20.9699 73.862 21.6229V30.1871H71.9204V11.5195H73.862V17.6487C74.3122 17.1263 74.8468 16.7345 75.4659 16.4733C76.1037 16.2121 76.7884 16.0814 77.52 16.0814Z" fill="white"/>
<path d="M99.8358 16.5572V30.1871H97.8942V27.6122C96.5999 29.4221 94.874 30.327 92.7168 30.327C91.4224 30.327 90.2312 30.0192 89.1432 29.4034C88.0551 28.7691 87.1922 27.9108 86.5544 26.8286C85.9354 25.7464 85.6258 24.571 85.6258 23.3022C85.6258 22.0148 85.9354 20.83 86.5544 19.7478C87.1922 18.6656 88.0551 17.8167 89.1432 17.2009C90.2312 16.5666 91.4224 16.2494 92.7168 16.2494C94.0486 16.2494 95.1367 16.5292 95.9808 17.089C96.8437 17.6301 97.4815 18.2178 97.8942 18.8522V16.5572H99.8358ZM92.7168 28.4239C93.6547 28.4239 94.5176 28.2 95.3055 27.7522C96.0934 27.2857 96.7124 26.6607 97.1626 25.877C97.6316 25.0934 97.8661 24.2351 97.8661 23.3022C97.8661 22.3693 97.6316 21.511 97.1626 20.7274C96.7124 19.925 96.0934 19.3 95.3055 18.8522C94.5176 18.3857 93.6547 18.1525 92.7168 18.1525C91.7788 18.1525 90.9065 18.3857 90.0999 18.8522C89.312 19.3 88.6836 19.925 88.2146 20.7274C87.7644 21.511 87.5393 22.3693 87.5393 23.3022C87.5393 24.2351 87.7644 25.0934 88.2146 25.877C88.6836 26.6607 89.312 27.2857 90.0999 27.7522C90.9065 28.2 91.7788 28.4239 92.7168 28.4239Z" fill="white"/>
<path d="M114.305 27.8361C113.629 28.6198 112.823 29.2355 111.885 29.6833C110.965 30.1124 109.971 30.327 108.902 30.327C107.626 30.327 106.444 30.0098 105.356 29.3754C104.268 28.7411 103.406 27.8828 102.768 26.8006C102.13 25.7184 101.811 24.543 101.811 23.2742C101.811 22.0054 102.13 20.83 102.768 19.7478C103.406 18.6656 104.268 17.8073 105.356 17.173C106.444 16.5386 107.626 16.2214 108.902 16.2214C109.971 16.2214 110.965 16.4453 111.885 16.8931C112.823 17.3222 113.629 17.9286 114.305 18.7123L112.588 19.6918C112.119 19.2067 111.566 18.8335 110.928 18.5723C110.29 18.2925 109.615 18.1525 108.902 18.1525C107.964 18.1525 107.101 18.3857 106.313 18.8522C105.525 19.3 104.897 19.9157 104.428 20.6994C103.959 21.483 103.724 22.3413 103.724 23.2742C103.724 24.2071 103.959 25.0654 104.428 25.849C104.897 26.6327 105.525 27.2577 106.313 27.7242C107.101 28.172 107.964 28.3959 108.902 28.3959C109.615 28.3959 110.29 28.2653 110.928 28.0041C111.566 27.7242 112.119 27.3417 112.588 26.8566L114.305 27.8361Z" fill="white"/>
<path d="M123.911 30.1871L118.79 24.2258V30.1871H116.849V11.4355H118.79V20.3355L123.405 16.1934H126.303L119.578 22.2107L126.472 30.1871H123.911Z" fill="white"/>
<path fill-rule="evenodd" clip-rule="evenodd" d="M7.97839 0H44.0864L55.7526 17.4053L68.2142 0H98.7663V2.79874H69.6648L56.8604 20.6828L39.6698 44.6804L7.97839 0ZM13.4071 2.79874L39.6811 39.8414L54.0058 19.8446L42.5805 2.79874H13.4071Z" fill="#5A40BE"/>
<path fill-rule="evenodd" clip-rule="evenodd" d="M130 2.79874H93.1384V0H130V2.79874Z" fill="#5A40BE"/>
<path fill-rule="evenodd" clip-rule="evenodd" d="M36.8615 88.9998H0V86.2011H36.8615V88.9998Z" fill="#6447D3"/>
<path fill-rule="evenodd" clip-rule="evenodd" d="M101.481 89L65.3727 89L53.7065 71.5947L41.2449 89L10.6928 89L10.6928 86.2013L39.7943 86.2013L52.5987 68.3172L69.7894 44.3196L101.481 89ZM96.052 86.2013L69.778 49.1586L55.4533 69.1554L66.8786 86.2013L96.052 86.2013Z" fill="#6447D3"/>
</svg>
