<svg width="20" height="20" viewBox="0 0 20 20" fill="current" xmlns="http://www.w3.org/2000/svg">
<g opacity="current">
<path fill-rule="evenodd" clip-rule="evenodd" d="M10 4.07234L6.31828 7.70084H13.6817L10 4.07234ZM10.8465 0.335493C10.3926 -0.111832 9.60741 -0.111831 9.15352 0.335494L0.299755 9.06128C-0.368301 9.71968 0.153094 10.7757 1.14623 10.7757H18.8538C19.8469 10.7757 20.3683 9.71968 19.7002 9.06128L10.8465 0.335493Z" fill="current"/>
<path fill-rule="evenodd" clip-rule="evenodd" d="M5.72202 10.7755L6.20659 15.9853C6.256 16.5165 6.75165 16.9252 7.34662 16.9252H12.6535C13.2484 16.9252 13.7441 16.5165 13.7935 15.9853L14.2781 10.7755H5.72202ZM4.47874 7.70062C3.14019 7.70062 2.08753 8.72563 2.19869 9.92075L2.78651 16.2407C2.98415 18.3656 4.96674 20 7.34662 20H12.6535C15.0334 20 17.0159 18.3656 17.2136 16.2407L17.8014 9.92075C17.9126 8.72563 16.8599 7.70062 15.5213 7.70062H4.47874Z" fill="current"/>
</g>
</svg>
