<svg width="20" height="20" viewBox="0 0 20 20" fill="current" xmlns="http://www.w3.org/2000/svg">
<g opacity="current">
<path fill-rule="evenodd" clip-rule="evenodd" d="M15.4997 5H4.50024L2.89998 3.7998L1.09998 6.1998L3 7.62482V14C3 14.5523 3.44772 15 4 15H16C16.5523 15 17 14.5523 17 14V7.62479L18.9 6.1998L17.1 3.7998L15.4997 5ZM15.4997 5H16C16.5523 5 17 5.44772 17 6V7.62479L13.3 10.3998C11.3444 11.8665 8.65553 11.8665 6.69998 10.3998L3 7.62482V6C3 5.44772 3.44772 5 4 5H4.50024L8.49998 7.9998C9.38886 8.66647 10.6111 8.66647 11.5 7.9998L15.4997 5ZM4 2C1.79086 2 0 3.79086 0 6V14C0 16.2091 1.79086 18 4 18H16C18.2091 18 20 16.2091 20 14V6C20 3.79086 18.2091 2 16 2H4Z" fill="current"/>
<path d="M3 6C3 5.44772 3.44772 5 4 5H4.50024L2.89998 3.7998L1.09998 6.1998L3 7.62482V6Z" fill="current"/>
<path d="M16 5C16.5523 5 17 5.44772 17 6V7.62479L18.9 6.1998L17.1 3.7998L15.4997 5H16Z" fill="current"/>
</g>
</svg>
