<svg width="20" height="20" viewBox="0 0 20 20" fill="current" xmlns="http://www.w3.org/2000/svg">
<g opacity="current">
<path fill-rule="evenodd" clip-rule="evenodd" d="M7 6C7 7.65685 8.34315 9 10 9C11.6569 9 13 7.65685 13 6C13 4.34315 11.6569 3 10 3C8.34315 3 7 4.34315 7 6ZM10 0C6.68629 0 4 2.68629 4 6C4 9.31371 6.68629 12 10 12C13.3137 12 16 9.31371 16 6C16 2.68629 13.3137 0 10 0Z" fill="current"/>
<path fill-rule="evenodd" clip-rule="evenodd" d="M5 17H15C15 14.2386 12.7614 12 10 12C7.23858 12 5 14.2386 5 17ZM18 17V20H2V17C2 12.5817 5.58172 9 10 9C14.4183 9 18 12.5817 18 17Z" fill="current"/>
</g>
</svg>
