<svg width="20" height="20" viewBox="0 0 20 20" fill="current" xmlns="http://www.w3.org/2000/svg">
<g opacity="current">
<path d="M6 4C6 5.65685 7.34315 7 9 7H11C12.6569 7 14 5.65685 14 4C14 2.34315 12.6569 1 11 1H9C7.34315 1 6 2.34315 6 4Z" fill="current"/>
<path fill-rule="evenodd" clip-rule="evenodd" d="M15.4997 7H4.50024L2.89998 5.7998L1.09998 8.1998L3 9.62482V16C3 16.5523 3.44772 17 4 17H16C16.5523 17 17 16.5523 17 16V9.62479L18.9 8.1998L17.1 5.7998L15.4997 7ZM15.4997 7H16C16.5523 7 17 7.44772 17 8V9.62479L13.3 12.3998C11.3444 13.8665 8.65553 13.8665 6.69998 12.3998L3 9.62482V8C3 7.44772 3.44772 7 4 7H4.50024L8.49998 9.9998C9.38886 10.6665 10.6111 10.6665 11.5 9.9998L15.4997 7ZM4 4C1.79086 4 0 5.79086 0 8V16C0 18.2091 1.79086 20 4 20H16C18.2091 20 20 18.2091 20 16V8C20 5.79086 18.2091 4 16 4H4Z" fill="current"/>
<path d="M3 8C3 7.44772 3.44772 7 4 7H4.50024L2.89998 5.7998L1.09998 8.1998L3 9.62482V8Z" fill="current"/>
<path d="M16 7C16.5523 7 17 7.44772 17 8V9.62479L18.9 8.1998L17.1 5.7998L15.4997 7H16Z" fill="current"/>
</g>
</svg>
